<svg width="17" height="16" viewBox="0 0 17 16" fill="none" xmlns="http://www.w3.org/2000/svg">
<path fill-rule="evenodd" clip-rule="evenodd" d="M17 8.00004C17 8.26526 16.8946 8.51961 16.7071 8.70715C16.5196 8.89469 16.2652 9.00004 16 9.00004H4.41399L8.708 13.292C8.80097 13.385 8.87472 13.4954 8.92504 13.6169C8.97536 13.7384 9.00126 13.8686 9.00126 14C9.00126 14.1315 8.97536 14.2617 8.92504 14.3832C8.87472 14.5047 8.80097 14.6151 8.708 14.708C8.61502 14.801 8.50464 14.8748 8.38316 14.9251C8.26168 14.9754 8.13148 15.0013 8 15.0013C7.86851 15.0013 7.73831 14.9754 7.61683 14.9251C7.49535 14.8748 7.38497 14.801 7.292 14.708L1.29199 8.70804C1.19887 8.61515 1.12498 8.5048 1.07457 8.38331C1.02416 8.26182 0.998207 8.13158 0.998207 8.00004C0.998207 7.86851 1.02416 7.73827 1.07457 7.61678C1.12498 7.49529 1.19887 7.38493 1.29199 7.29204L7.292 1.29204C7.47977 1.10427 7.73444 0.998779 8 0.998779C8.26555 0.998779 8.52022 1.10427 8.708 1.29204C8.89577 1.47982 9.00126 1.73449 9.00126 2.00004C9.00126 2.26559 8.89577 2.52027 8.708 2.70804L4.41399 7.00004H16C16.2652 7.00004 16.5196 7.1054 16.7071 7.29294C16.8946 7.48047 17 7.73483 17 8.00004Z" fill="white"/>
</svg>
